<svg width="20" height="20" viewBox="0 0 20 20" fill="none" xmlns="http://www.w3.org/2000/svg">
<path d="M9.99992 11.6666C10.9204 11.6666 11.6666 10.9204 11.6666 9.99992C11.6666 9.07944 10.9204 8.33325 9.99992 8.33325C9.07944 8.33325 8.33325 9.07944 8.33325 9.99992C8.33325 10.9204 9.07944 11.6666 9.99992 11.6666Z" fill="#747474"/>
<path d="M4.99992 11.6666C5.92039 11.6666 6.66659 10.9204 6.66659 9.99992C6.66659 9.07944 5.92039 8.33325 4.99992 8.33325C4.07944 8.33325 3.33325 9.07944 3.33325 9.99992C3.33325 10.9204 4.07944 11.6666 4.99992 11.6666Z" fill="#747474"/>
<path d="M14.9999 11.6666C15.9204 11.6666 16.6666 10.9204 16.6666 9.99992C16.6666 9.07944 15.9204 8.33325 14.9999 8.33325C14.0794 8.33325 13.3333 9.07944 13.3333 9.99992C13.3333 10.9204 14.0794 11.6666 14.9999 11.6666Z" fill="#747474"/>
</svg>
