<svg width="145" height="27" viewBox="0 0 145 27" fill="none" xmlns="http://www.w3.org/2000/svg">
<path d="M19.7164 0.499998H24.7864V26.12H19.7164V14.9H16.3264C15.8764 22.01 12.8764 25.22 8.46644 25.22C3.69644 25.22 0.516443 21.44 0.516443 13.01C0.516443 4.58 3.69644 0.8 8.46644 0.8C12.6664 0.8 15.6064 3.71 16.2664 10.16H19.7164V0.499998ZM8.46644 20.57C10.1164 20.57 11.3764 18.77 11.3764 13.01C11.3764 7.28 10.1164 5.45 8.46644 5.45C6.78644 5.45 5.52644 7.28 5.52644 13.01C5.52644 18.77 6.78644 20.57 8.46644 20.57ZM50.2839 0.499998H54.9639V26.12H50.2839V0.499998ZM44.0739 19.58V0.619998H48.6939V25.67H44.0739V23.84H39.6339V19.58H44.0739ZM36.1239 13.22C32.1939 13.22 29.6739 10.76 29.6739 7.01C29.6739 3.26 32.1939 0.8 36.1239 0.8C40.0239 0.8 42.5439 3.26 42.5439 7.01C42.5439 10.76 40.0239 13.22 36.1239 13.22ZM36.1239 4.79C34.9839 4.79 34.2039 5.66 34.2039 7.01C34.2039 8.36 34.9839 9.23 36.1239 9.23C37.2639 9.23 38.0139 8.36 38.0139 7.01C38.0139 5.66 37.2639 4.79 36.1239 4.79ZM42.8739 17.78C41.6439 18.17 39.9339 18.41 38.0739 18.5V25.46H33.4539V18.53H29.4639V14.24H36.7539C38.9439 14.24 41.3439 14 42.8739 13.58V17.78ZM83.8213 0.499998V26.12H78.7513V0.499998H83.8213ZM67.8613 0.8C72.6913 0.8 75.9013 4.58 75.9013 13.01C75.9013 21.44 72.6913 25.22 67.8613 25.22C63.0313 25.22 59.7913 21.44 59.7913 13.01C59.7913 4.58 63.0313 0.8 67.8613 0.8ZM67.8613 5.45C66.1513 5.45 64.8013 7.28 64.8013 13.01C64.8013 18.77 66.1513 20.57 67.8613 20.57C69.5413 20.57 70.8913 18.77 70.8913 13.01C70.8913 7.28 69.5413 5.45 67.8613 5.45ZM108.449 0.499998H113.519V26.12H108.449V14.69H103.439C101.519 21.26 96.2387 24.89 89.4887 24.92V20.18C93.6587 20.15 96.8687 18.35 98.3387 14.48H89.4887V9.89H99.1787V9.14V5.75H89.4887V1.1H104.219V8.78C104.219 9.17 104.219 9.56 104.189 9.95H108.449V0.499998ZM130.976 10.25C128.006 14.27 123.596 16.82 118.706 16.85V12.05C123.806 12.02 128.546 7.28 129.476 0.409999L134.636 1.22C134.396 3.02 133.916 4.7 133.226 6.29L144.146 12.86L141.476 16.97L130.976 10.25ZM118.196 25.22V20.48H144.116V25.22H118.196Z" fill="black"/>
</svg>
